<svg xmlns="http://www.w3.org/2000/svg" version="1.1" xmlns:xlink="http://www.w3.org/1999/xlink" viewBox="0 0 200 200"><rect width="200" height="200" fill="url('#gradient')"></rect><defs><linearGradient id="gradient" gradientTransform="rotate(98 0.5 0.5)"><stop offset="0%" stop-color="#39a3fa"></stop><stop offset="100%" stop-color="#f9de4c"></stop></linearGradient></defs><g><g fill="#3250ab" transform="matrix(7.062068965517241,0,0,7.062068965517241,10.205950043132077,150.2106861542011)" stroke="#faf239" stroke-width="0.2"><path d="M3.77-14.22L6.59-3.87L9.42-14.22L13.25-14.22L8.47 0L4.72 0L-0.03-14.22L3.77-14.22ZM18.96 0L14.29 0L14.29-14.22L18.87-14.22Q20.75-14.22 22.26-13.36Q23.76-12.51 24.60-10.95Q25.45-9.39 25.46-7.46L25.46-7.46L25.46-6.81Q25.46-4.85 24.63-3.31Q23.81-1.76 22.31-0.88Q20.81-0.01 18.96 0L18.96 0ZM18.87-11.57L17.71-11.57L17.71-2.64L18.91-2.64Q20.38-2.64 21.17-3.69Q21.96-4.74 21.96-6.81L21.96-6.81L21.96-7.42Q21.96-9.48 21.17-10.53Q20.38-11.57 18.87-11.57L18.87-11.57Z"></path></g></g></svg>